<svg id="Layer_3" enable-background="new 0 0 64 64" height="512" viewBox="0 0 64 64" width="512" xmlns="http://www.w3.org/2000/svg"><g><path d="m7.998 45.324.002 13.93c3.281 1.003 8.06 1.745 14 1.745 5.939 0 10.717-.742 13.998-1.745v-13.93c-3.786 1.071-8.791 1.675-13.998 1.676-5.209 0-10.215-.605-14.002-1.676zm20.201 6.075 2.4 1.8c.252.189.399.485.4.8 0 .315-.148.611-.4.8l-2.4 1.8c-1.204.903-2.695 1.399-4.199 1.399-1.505 0-2.997-.497-4.201-1.399l-1.417-1.063c-.925 1.504-2.561 2.464-4.381 2.464-.001 0-.001 0-.002 0-.321 0-.623-.154-.811-.415s-.239-.596-.138-.901l.894-2.684-.895-2.684c-.102-.305-.051-.64.138-.901.188-.261.489-.416.811-.416h.001c1.821 0 3.458.96 4.383 2.462l1.417-1.062c2.41-1.805 5.99-1.805 8.4 0z"/><path d="m13 33c-1.937 0-3 .751-3 1s1.063 1 3 1c1.936 0 2.999-.751 2.999-1 0-.25-1.063-1-2.999-1z"/><path d="m3 37.163v18.836c0 .795 1.053 1.708 3 2.536v-14.535c0-.323.154-.641.417-.829.261-.188.601-.252.903-.15 3.7 1.257 9.049 1.979 14.68 1.979 5.629 0 10.979-.721 14.678-1.979.312-.105.653-.051.917.143.264.195.414.507.404.835l-.001 14.536c1.947-.828 3.001-1.741 3.001-2.536v-18.836c-3.549 2.528-11.306 3.836-18.999 3.836-7.694 0-15.451-1.308-19-3.836z"/><path d="m20.999 55c1.72 1.289 4.278 1.29 6 0l1.334-1-1.334-1c-1.722-1.291-4.28-1.289-6 0l-1.334 1z"/><path d="m15.515 52.385.433 1.298c.068.206.068.427 0 .632l-.433 1.298c.638-.348 1.148-.912 1.426-1.614-.277-.702-.789-1.266-1.426-1.614z"/><path d="m46 8.999c9.743 0 14.999-2.129 14.999-3s-5.256-3-14.999-3c-9.744 0-15 2.129-15 3s5.256 3 15 3z"/><path d="m30.998 16.539v11.085c1.903.278 3.686.648 5.266 1.11 1.033-4.484 5.017-7.734 9.736-7.734 5.514 0 10 4.486 10 10s-4.486 10-10 10c-1.035 0-2.037-.168-3.001-.472v2.393c.985.047 1.985.079 3.001.079 9.743 0 15-2.129 15-3v-23.46c-3.471 1.888-10.66 2.459-15 2.459-4.341 0-11.532-.571-15.002-2.46z"/><path d="m46 10.999c-4.341 0-11.532-.571-15.002-2.46v5.461h.002c0 .871 5.256 3 15 3 9.743 0 14.999-2.129 14.999-3h.001v-5.46c-3.471 1.888-10.66 2.459-15 2.459z"/><path d="m42.999 38.406c.951.386 1.955.593 3.001.593 4.105 0 7.494-3.108 7.945-7.094l-.142.095c-.981.654-2.124 1-3.304 1s-2.322-.346-3.304-1l-.503-.336c-.651-.435-1.41-.664-2.193-.664h-1.001c-.62 0-1.224.15-1.773.427.813.763 1.273 1.62 1.273 2.573v4.406z"/><path d="m42.999 44.922v7.998c.985.047 1.985.079 3.001.079 9.743 0 15-2.129 15-3v-7.459c-3.471 1.888-10.66 2.459-15 2.459-1.015 0-2.015-.031-3.001-.077z"/><path d="m22 29c-11.772 0-19 2.912-19 5 0 2.087 7.228 5 19 5 11.771 0 18.999-2.912 18.999-5s-7.228-5-18.999-5zm-9 7.999c-2.851 0-5-1.29-5-3s2.149-3 5-3c2.85 0 4.999 1.29 4.999 3s-2.149 3-4.999 3z"/><path d="m43.498 29h1.001c1.18 0 2.321.346 3.304 1l.503.336c1.305.87 3.086.869 4.387 0l1.17-.78c-.683-3.724-3.946-6.556-7.863-6.556-3.841 0-7.081 2.69-7.835 6.374.643.249 1.233.516 1.766.803l.264-.177c.983-.655 2.124-1 3.303-1z"/></g></svg>